HIERARCHY
ROOT Hips
{
  OFFSET -102.467 93.6631 130.069
  CHANNELS 6 Xposition Yposition Zposition Zrotation Xrotation Yrotation
  JOINT LeftUpLeg
  {
    OFFSET 8.64259 1.95398 -2.38835
    CHANNELS 3 Zrotation Xrotation Yrotation
    JOINT LeftLeg
    {
      OFFSET 43.7702 0 0
      CHANNELS 3 Zrotation Xrotation Yrotation
      JOINT LeftFoot
      {
        OFFSET 40.6238 0 0
        CHANNELS 3 Zrotation Xrotation Yrotation
        JOINT LeftToeBase
        {
          OFFSET 12.7242 0 0
          CHANNELS 3 Zrotation Xrotation Yrotation
          End Site
          {
            OFFSET 0 0 0
          }
        }
      }
    }
  }
  JOINT RightUpLeg
  {
    OFFSET -8.2249 1.95398 -2.59336
    CHANNELS 3 Zrotation Xrotation Yrotation
    JOINT RightLeg
    {
      OFFSET 43.5653 0 0
      CHANNELS 3 Zrotation Xrotation Yrotation
      JOINT RightFoot
      {
        OFFSET 40.6238 0 0
        CHANNELS 3 Zrotation Xrotation Yrotation
        JOINT RightToeBase
        {
          OFFSET 12.7242 0 0
          CHANNELS 3 Zrotation Xrotation Yrotation
          End Site
          {
            OFFSET 0 0 0
          }
        }
      }
    }
  }
  JOINT Spine
  {
    OFFSET 0.165834 0.87714 6.61349
    CHANNELS 3 Zrotation Xrotation Yrotation
    JOINT Spine1
    {
      OFFSET 7.38963 1.71661e-005 0
      CHANNELS 3 Zrotation Xrotation Yrotation
      JOINT Spine2
      {
        OFFSET 11.9445 1.14441e-005 0
        CHANNELS 3 Zrotation Xrotation Yrotation
        JOINT Spine3
        {
          OFFSET 14.7254 4.19617e-005 0
          CHANNELS 3 Zrotation Xrotation Yrotation
          JOINT Spine4
          {
            OFFSET 10.9679 0 0
            CHANNELS 3 Zrotation Xrotation Yrotation
            JOINT RightShoulder
            {
              OFFSET 2.46616 -1.6653 3.69651
              CHANNELS 3 Zrotation Xrotation Yrotation
              JOINT RightArm
              {
                OFFSET 13.0012 0 0
                CHANNELS 3 Zrotation Xrotation Yrotation
                JOINT RightForeArm
                {
                  OFFSET 28.7848 1.52588e-005 0
                  CHANNELS 3 Zrotation Xrotation Yrotation
                  JOINT RightHand
                  {
                    OFFSET 26.5688 1.52588e-005 0
                    CHANNELS 3 Zrotation Xrotation Yrotation
                    End Site
                    {
                      OFFSET 0 0 0
                    }
                  }
                }
              }
            }
            JOINT LeftShoulder
            {
              OFFSET 2.38034 -1.29275 -3.7523
              CHANNELS 3 Zrotation Xrotation Yrotation
              JOINT LeftArm
              {
                OFFSET 16.3182 6.10351e-005 0
                CHANNELS 3 Zrotation Xrotation Yrotation
                JOINT LeftForeArm
                {
                  OFFSET 27.0901 0 0
                  CHANNELS 3 Zrotation Xrotation Yrotation
                  JOINT LeftHand
                  {
                    OFFSET 24.5451 1.52588e-005 0
                    CHANNELS 3 Zrotation Xrotation Yrotation
                    End Site
                    {
                      OFFSET 0 0 0
                    }
                  }
                }
              }
            }
            JOINT Neck
            {
              OFFSET 5.0226 -0.0266342 0
              CHANNELS 3 Zrotation Xrotation Yrotation
              JOINT Head
              {
                OFFSET 6.69363 2.86102e-005 0
                CHANNELS 3 Zrotation Xrotation Yrotation
                End Site
                {
                  OFFSET 0 0 0
                }
              }
            }
          }
        }
      }
    }
  }
}
MOTION
Frames:	7
Frame Time:	0.0416667
-285.12 56.4528 -253.611 99.2865 5.51842 88.1631 -169.235 14.5641 112.736 160.891 37.2914 79.3321 -163.749 50.1591 -46.1534 -45.7513 -1.98848 17.4145 -126.024 29.1811 37.4084 -94.5927 -7.58494 -35.261 85.7211 -13.1411 44.3016 90.2947 28.3789 55.7396 -4.13407 5.05268 -89.5171 16.8989 -7.89851 2.34738 5.25041 -7.78729 2.70248 -17.4796 -8.23749 -0.147459 2.53301 -8.23748 -0.147458 130.104 -34.1431 -30.7101 2.05303 -43.4525 44.1788 1.65945 1.4635 -149.914 -7.04129 -4.88973 69.1478 -44.1898 -73.1213 136.31 -117.784 28.9528 142.051 75.7347 -24.8163 -49.6367 87.4316 -21.8082 -26.1666 73.3392 -0.548818 -8.48026 -14.5079 9.26146 108.674 
-285.901 56.9068 -254.245 99.3871 5.57366 88.0626 -164.052 10.4556 109.289 162.453 29.5808 76.7729 -154.029 52.308 -50.3388 -47.0675 -2.19947 17.6197 -126.163 28.7631 38.306 -95.4665 -7.75775 -35.6855 85.9994 -13.9154 43.4962 91.6265 27.7121 54.2736 -4.14858 5.06592 -89.5183 16.8731 -7.92836 2.34755 5.22453 -7.81715 2.70268 -17.5069 -8.26588 -0.156779 2.50578 -8.26589 -0.156782 130.023 -34.049 -30.7822 1.42309 -43.3101 43.956 1.81236 1.00153 -150.122 -7.0532 -4.84967 68.5845 -42.8961 -73.7752 137.541 -117.514 28.7528 142.137 75.6409 -24.907 -49.4806 87.8722 -21.986 -26.1808 67.5962 11.3963 -7.62171 -14.6222 19.7475 107.521 
-288.129 58.1867 -256.049 99.6803 5.73109 87.769 -153.755 1.03617 106.099 161.554 13.7844 73.7865 -129.356 55.9497 -64.3297 -50.8391 -2.97999 18.392 -126.473 27.426 40.9174 -98.2042 -8.33408 -36.8174 86.6064 -16.1852 40.879 95.3596 25.581 50.1292 -4.19098 5.10478 -89.5223 16.7971 -8.01564 2.34806 5.14864 -7.90443 2.70324 -17.5869 -8.34869 -0.184757 2.42576 -8.34869 -0.184756 129.794 -33.7822 -30.9874 -0.459715 -42.8614 43.2642 2.26527 -0.384771 -150.713 -7.09002 -4.74227 67.0362 -38.5187 -75.6528 141.724 -116.692 28.1886 142.362 75.3059 -25.2435 -49.064 89.1528 -22.5693 -26.2803 66.8282 11.316 -6.06692 -9.85498 26.7703 108.288 
-291.579 60.0834 -258.845 100.153 5.97623 87.2945 -148.945 -4.22596 107.696 153.358 7.49665 75.7252 -110.076 56.6758 -79.7913 -56.6047 -4.89433 20.2453 -126.556 24.8307 45.0991 -103.206 -9.50373 -38.1989 86.848 -19.7954 35.7582 100.885 21.62 43.8755 -4.25945 5.16826 -89.5294 16.6729 -8.15725 2.34545 5.02496 -8.04608 2.70418 -17.7176 -8.4824 -0.232044 2.29502 -8.48241 -0.232047 129.441 -33.3676 -31.3022 -3.63721 -42.0244 42.0255 3.02337 -2.75122 -151.614 -7.15523 -4.59686 64.7962 -28.7441 -78.5245 151.142 -115.254 27.3269 142.612 74.5265 -26.0458 -48.5425 91.213 -23.7712 -26.6608 65.1844 13.1171 -3.23416 -1.87621 38.8009 106.143 
-295.997 62.2671 -262.455 100.794 6.29276 86.6506 -148.705 -5.27806 111.329 139.55 7.50298 81.0262 -98.8231 55.5401 -92.9746 -63.2994 -9.17862 24.1242 -125.48 20.2845 50.636 -110.893 -11.778 -38.8388 85.558 -24.298 27.0435 107.334 15.3885 36.2611 -4.3515 5.25481 -89.5394 16.5031 -8.34771 2.33811 4.85632 -8.23673 2.70547 -17.8962 -8.66165 -0.297582 2.11644 -8.66167 -0.297586 128.995 -32.8245 -31.695 -8.1489 -40.6583 40.1722 4.10608 -6.1977 -152.72 -7.25041 -4.43986 62.159 -6.2067 -81.6648 173.111 -113.136 26.2295 142.751 72.8508 -27.7785 -48.2205 93.9449 -26.1087 -27.754 65.1253 15.3214 -0.512757 6.5126 48.0076 100.763 
-301.161 64.3425 -266.753 101.589 6.66174 85.8472 -148.459 -6.15879 116.296 120.817 4.89842 86.7918 -88.5371 51.0534 -108.449 -68.2155 -17.7211 31.7687 -121.56 13.0318 57.4262 -121.037 -16.4996 -37.2281 81.4487 -28.6683 13.7483 113.664 6.60362 28.0307 -4.46024 5.36122 -89.549 16.2941 -8.57202 2.33188 4.64885 -8.46106 2.7093 -18.1157 -8.87351 -0.372494 1.897 -8.8735 -0.372495 128.482 -32.1518 -32.1215 -13.8996 -38.6002 37.7629 5.53343 -10.8059 -153.89 -7.37208 -4.28509 59.3402 39.4075 -82.5366 -142.117 -110.361 24.8589 142.708 69.3316 -31.3524 -48.7155 96.9194 -30.6417 -30.5134 66.7385 11.3208 2.64044 19.922 62.1772 90.5635 
-307.168 65.7016 -272.016 102.526 7.06279 84.895 -147.952 -6.90946 122.375 54.4417 -0.324556 89.7757 -42.0075 30.9945 -174.769 -63.8552 -31.4762 47.9565 -113.212 3.321 65.2998 -131.507 -25.4242 -32.6776 75.1774 -31.4785 -2.70215 118.487 -3.933 20.105 -4.56747 5.48152 -89.547 16.0576 -8.78812 2.34317 4.4137 -8.67646 2.73031 -18.3626 -9.08277 -0.428232 1.65002 -9.08277 -0.428234 127.942 -31.312 -32.4895 -20.5356 -35.7525 35.0887 7.31581 -16.5566 -154.949 -7.51039 -4.13554 56.4749 77.822 -78.6138 -104.866 -107.158 22.8566 142.646 61.402 -38.703 -51.8842 97.8921 -39.4999 -37.7907 -80.6734 82.1566 141.225 5.1742 -17.2446 94.9466 
